PathFileType   4   (X/Y/Z)
DataRate	CameraRate	NumFrames	NumMarkers	Units	OrigDataRate	OrigDataStartFrame	OrigNumFrames
120.0	120.0	7	37	mm	120.0	74	118
Frame#	Time	midhip	hip_r	hip_l	knee_r	knee_l	ankle_r	ankle_l	midasis	asis_r	asis_l	psis_r	psis_l	epicondLat_r	epicondLat_l	epicondMed_r	epicondMed_l	malleolusLat_r	malleolusLat_l	malleolusMedv_r	malleolusMedv_l	neck	subclavicle_r	subclavicle_l	sternalnotch	xyphoidprocess	thighwand_r	thighwand_l	upperleg1_r	upperleg1_l	upperleg2_r	upperleg2_l	shankwand_r	shankwand_l	lowerleg1_r	lowerleg1_l	toe_r	toe_l
 	 	X1	Y1	Z1	X2	Y2	Z2	X3	Y3	Z3	X4	Y4	Z4	X5	Y5	Z5	X6	Y6	Z6	X7	Y7	Z7	X8	Y8	Z8	X9	Y9	Z9	X10	Y10	Z10	X11	Y11	Z11	X12	Y12	Z12	X13	Y13	Z13	X14	Y14	Z14	X15	Y15	Z15	X16	Y16	Z16	X17	Y17	Z17	X18	Y18	Z18	X19	Y19	Z19	X20	Y20	Z20	X21	Y21	Z21	X22	Y22	Z22	X23	Y23	Z23	X24	Y24	Z24	X25	Y25	Z25	X26	Y26	Z26	X27	Y27	Z27	X28	Y28	Z28	X29	Y29	Z29	X30	Y30	Z30	X31	Y31	Z31	X32	Y32	Z32	X33	Y33	Z33	X34	Y34	Z34	X35	Y35	Z35	X36	Y36	Z36	X37	Y37	Z37

	74	0.73333	1839.707	884.661	-235.828	1829.515	856.906	-168.154	1844.088	874.576	-316.829	1855.713	445.648	-127.999	1943.498	466.706	-285.015	1550.170	196.665	-141.567	1948.780	69.971	-257.310	1923.393	950.440	-223.938	1911.799	936.381	-105.647	1934.988	964.498	-342.229	1735.035	989.892	-201.993	1747.011	997.300	-286.883	1856.085	451.356	-69.780	1956.805	465.547	-341.456	1878.175	426.753	-178.805	1924.609	473.158	-225.251	1537.787	209.918	-105.915	1935.645	67.239	-293.930	1568.339	190.476	-166.230	1951.615	85.808	-231.752	1733.175	1417.376	-217.402	1861.395	1343.888	-165.142	1870.167	1347.412	-271.167	1847.938	1353.049	-215.989	1934.175	1191.452	-226.488	1885.727	553.320	4.214	2066.280	600.631	-273.839	1907.131	614.687	-61.960	1995.110	631.719	-331.227	1920.259	527.060	-76.115	1993.636	545.528	-317.325	1641.083	286.768	-12.323	1968.073	200.295	-384.200	1619.393	263.560	-86.877	1944.008	166.756	-314.073	1531.881	71.298	-130.246	2071.924	40.397	-264.846
	75	0.74167	1848.960	885.114	-237.259	1839.058	857.976	-168.479	1853.807	875.263	-317.182	1877.517	447.897	-127.998	1947.704	466.734	-285.639	1570.893	200.245	-142.406	1949.060	69.948	-257.425	1932.880	951.490	-224.390	1921.133	937.721	-105.954	1944.628	965.258	-342.826	1744.533	990.532	-203.158	1756.616	998.187	-288.012	1876.964	453.593	-69.778	1960.916	465.411	-342.099	1898.102	429.421	-178.298	1928.360	473.386	-226.157	1558.609	213.376	-106.676	1935.858	67.300	-294.026	1589.100	193.583	-167.141	1951.768	85.886	-231.958	1743.228	1418.712	-218.583	1870.653	1344.835	-165.354	1880.202	1348.326	-271.116	1857.809	1354.187	-216.461	1943.324	1192.136	-226.074	1902.454	555.739	4.348	2072.226	599.042	-274.613	1923.964	618.010	-61.564	2001.249	631.109	-332.053	1938.083	530.219	-75.385	1998.417	544.593	-318.194	1662.397	289.386	-12.809	1969.502	199.800	-384.440	1640.446	266.530	-87.903	1945.875	166.101	-314.125	1554.395	74.728	-127.405	2071.910	40.225	-264.962
	76	0.75000	1859.260	886.579	-238.262	1848.563	859.114	-168.797	1863.416	875.965	-317.540	1898.995	450.541	-128.118	1951.808	466.701	-286.176	1592.206	203.062	-143.260	1949.308	69.907	-257.500	1942.281	952.609	-224.914	1930.439	939.175	-106.331	1954.122	966.043	-343.498	1753.982	991.208	-204.253	1766.115	999.029	-289.058	1897.671	456.173	-69.905	1964.893	465.198	-342.661	1918.833	431.956	-178.132	1932.237	473.180	-227.648	1579.894	216.138	-107.519	1936.077	67.345	-294.098	1610.623	196.287	-168.038	1951.913	86.024	-232.090	1753.355	1420.147	-219.460	1880.033	1345.747	-165.479	1889.719	1349.510	-271.146	1867.573	1355.267	-216.846	1952.167	1192.939	-226.527	1919.320	558.365	4.387	2078.052	597.370	-275.410	1940.554	621.042	-61.501	2007.336	630.861	-332.736	1956.171	533.628	-74.997	2003.204	543.506	-319.279	1683.733	292.001	-13.477	1970.991	199.355	-384.626	1661.773	269.340	-89.205	1948.000	165.689	-313.828	1579.009	77.594	-124.425	2071.891	40.052	-265.036
	77	0.75833	1868.950	887.571	-239.328	1858.046	860.340	-169.142	1872.930	876.707	-317.936	1920.038	453.526	-128.360	1955.804	466.621	-286.615	1614.089	205.065	-144.055	1949.548	69.850	-257.538	1951.628	953.802	-225.543	1939.753	940.743	-106.829	1963.503	966.860	-344.256	1763.400	991.965	-205.249	1775.541	999.864	-290.009	1918.124	459.069	-70.154	1968.735	464.918	-343.130	1939.566	435.006	-178.679	1936.423	473.216	-228.836	1601.635	218.146	-108.366	1936.306	67.377	-294.138	1633.154	198.285	-168.622	1952.046	86.032	-232.071	1763.267	1421.418	-220.342	1889.707	1346.753	-165.716	1899.562	1350.681	-271.692	1877.220	1356.324	-217.186	1961.731	1193.952	-227.077	1936.313	561.176	4.327	2083.765	595.612	-276.217	1956.598	624.097	-61.368	2013.474	630.508	-333.120	1974.180	537.194	-75.051	2008.143	543.100	-320.202	1705.076	294.522	-14.263	1972.492	198.961	-384.762	1683.222	272.423	-90.150	1948.826	166.051	-313.631	1605.394	79.884	-121.445	2071.876	39.884	-265.072
	78	0.76667	1877.999	888.082	-240.411	1867.514	861.658	-169.541	1882.362	877.501	-318.395	1940.577	456.787	-128.711	1959.682	466.523	-286.948	1636.521	206.235	-144.741	1949.810	69.786	-257.550	1960.946	955.057	-226.291	1949.094	942.412	-107.483	1972.798	967.702	-345.099	1772.787	992.829	-206.137	1784.927	1000.718	-290.872	1938.262	462.238	-70.511	1972.434	464.595	-343.496	1957.950	439.066	-180.101	1940.319	473.601	-229.485	1623.833	219.354	-109.148	1936.551	67.404	-294.150	1655.963	199.756	-169.084	1952.266	85.975	-232.043	1773.080	1422.832	-221.414	1899.028	1347.816	-165.867	1909.602	1351.513	-271.919	1886.777	1357.387	-217.529	1970.971	1194.671	-226.530	1953.405	564.159	4.171	2089.368	593.762	-277.016	1972.586	627.318	-61.190	2019.590	629.807	-333.484	1991.450	540.899	-75.722	2012.904	542.755	-320.868	1726.454	296.825	-15.102	1973.944	198.614	-384.860	1704.660	275.298	-90.660	1949.117	166.645	-313.855	1633.196	81.604	-118.606	2071.878	39.732	-265.079
	79	0.77500	1887.837	889.487	-241.032	1876.965	863.051	-170.001	1891.724	878.334	-318.922	1960.578	460.249	-129.155	1963.433	466.433	-287.173	1659.474	206.562	-145.287	1950.113	69.722	-257.549	1970.249	956.350	-227.157	1958.469	944.152	-108.299	1982.028	968.548	-346.015	1782.130	993.806	-206.923	1794.281	1001.593	-291.656	1958.048	465.626	-70.958	1975.988	464.257	-343.756	1977.193	442.947	-181.134	1944.416	473.975	-229.952	1646.488	219.720	-109.815	1936.813	67.436	-294.139	1678.830	200.934	-169.681	1952.579	85.912	-232.173	1782.739	1424.178	-222.340	1908.347	1348.901	-166.262	1919.101	1352.436	-272.130	1896.273	1358.441	-217.919	1979.984	1195.490	-226.529	1970.566	567.305	3.937	2094.864	591.811	-277.793	1988.629	630.891	-61.453	2025.443	629.155	-334.277	2009.032	544.973	-76.382	2017.687	542.037	-321.525	1747.929	298.767	-15.938	1975.293	198.300	-384.928	1726.221	277.081	-91.174	1949.424	166.744	-314.121	1662.102	82.770	-116.041	2071.906	39.609	-265.066
	80	0.78333	1897.315	890.706	-241.364	1886.399	864.485	-170.515	1901.022	879.178	-319.509	1980.043	463.830	-129.675	1967.059	466.368	-287.301	1682.932	206.036	-145.684	1950.458	69.663	-257.539	1979.539	957.648	-228.126	1967.874	945.928	-109.271	1991.204	969.369	-346.980	1791.412	994.873	-207.624	1803.589	1002.468	-292.373	1977.478	469.163	-71.475	1979.399	463.924	-343.920	1998.340	446.719	-181.542	1948.814	474.199	-230.059	1669.605	219.201	-110.342	1937.081	67.479	-294.108	1702.330	201.414	-170.243	1952.914	85.939	-232.342	1792.193	1425.098	-223.048	1917.647	1350.060	-166.970	1928.684	1353.563	-272.442	1905.713	1359.471	-218.372	1989.628	1196.709	-226.787	1987.774	570.613	3.641	2100.254	589.755	-278.545	2004.475	634.867	-61.938	2030.910	628.283	-335.203	2027.107	549.666	-76.713	2022.418	541.248	-322.094	1769.566	300.216	-16.727	1976.509	198.001	-384.967	1748.429	277.810	-92.005	1949.463	166.822	-314.337	1691.858	83.400	-113.854	2071.967	39.524	-265.039
